<?xml version="1.0" encoding="UTF-8" standalone="no"?>
<!-- Generator: Adobe Illustrator 18.0.0, SVG Export Plug-In . SVG Version: 6.00 Build 0)  -->

<svg
   xmlns:dc="http://purl.org/dc/elements/1.1/"
   xmlns:cc="http://creativecommons.org/ns#"
   xmlns:rdf="http://www.w3.org/1999/02/22-rdf-syntax-ns#"
   xmlns:svg="http://www.w3.org/2000/svg"
   xmlns="http://www.w3.org/2000/svg"
   xmlns:sodipodi="http://sodipodi.sourceforge.net/DTD/sodipodi-0.dtd"
   xmlns:inkscape="http://www.inkscape.org/namespaces/inkscape"
   version="1.1"
   id="Capa_1"
   x="0px"
   y="0px"
   viewBox="0 0 196.492 196.492"
   style="enable-background:new 0 0 196.492 196.492;"
   xml:space="preserve"
   sodipodi:docname="palamar-logo.svg"
   inkscape:version="0.92.1 r"><metadata
     id="metadata124"><rdf:RDF><cc:Work
         rdf:about=""><dc:format>image/svg+xml</dc:format><dc:type
           rdf:resource="http://purl.org/dc/dcmitype/StillImage" /></cc:Work></rdf:RDF></metadata><defs
     id="defs122" /><sodipodi:namedview
     pagecolor="#ffffff"
     bordercolor="#666666"
     borderopacity="1"
     objecttolerance="10"
     gridtolerance="10"
     guidetolerance="10"
     inkscape:pageopacity="0"
     inkscape:pageshadow="2"
     inkscape:window-width="1888"
     inkscape:window-height="1055"
     id="namedview120"
     showgrid="false"
     inkscape:zoom="4.5090893"
     inkscape:cx="98.246002"
     inkscape:cy="98.246002"
     inkscape:window-x="0"
     inkscape:window-y="0"
     inkscape:window-maximized="1"
     inkscape:current-layer="Capa_1" /><path
     d="M37.096,68.389l-26.86-13.361c7.732-15.544,19.496-28.818,34.02-38.387L60.76,41.691  C50.655,48.35,42.472,57.581,37.096,68.389z M0,98.733c0.001,14.623,3.141,28.701,9.335,41.842l27.137-12.789  C32.178,118.675,30,108.899,30,98.732c0-2.02,0.089-4.055,0.264-6.049L0.379,90.061C0.127,92.923,0,95.841,0,98.733z   M190.513,64.916c-5.97-16.284-16.215-30.765-29.629-41.875l-19.137,23.104c9.331,7.729,16.454,17.791,20.599,29.098L190.513,64.916  z M166.492,98.732c0,12.116-3.211,24.012-9.288,34.399l25.897,15.146c8.76-14.98,13.391-32.112,13.391-49.546H166.492z   M98.246,30.486c7.328,0,14.531,1.151,21.409,3.422l9.404-28.488c-9.917-3.273-20.284-4.934-30.813-4.934  c-6.872,0-13.74,0.716-20.412,2.126l6.206,29.351C88.676,30.983,93.456,30.486,98.246,30.486z M82.643,165.19  c-11.719-2.738-22.56-8.593-31.35-16.931l-20.646,21.766c12.65,12,28.27,20.43,45.17,24.378L82.643,165.19z M140.628,152.228  c-9.475,7.519-20.788,12.386-32.717,14.075l4.206,29.703c17.204-2.436,33.512-9.448,47.16-20.278L140.628,152.228z"
     id="path87"
     style="fill:#008080" /><g
     id="g89" /><g
     id="g91" /><g
     id="g93" /><g
     id="g95" /><g
     id="g97" /><g
     id="g99" /><g
     id="g101" /><g
     id="g103" /><g
     id="g105" /><g
     id="g107" /><g
     id="g109" /><g
     id="g111" /><g
     id="g113" /><g
     id="g115" /><g
     id="g117" /><path
     style="fill:#008080;stroke-width:0.22177427"
     d="m 117.47383,33.165766 c -9.19549,-2.80297 -20.50152,-3.4823 -30.459617,-1.830188 -1.505808,0.249822 -2.787439,0.404618 -2.848068,0.34399 C 84.105515,31.618939 82.686,25.099953 81.011665,17.192933 78.980268,7.5996942 78.046295,2.7686435 78.20449,2.6725949 78.491481,2.4983466 84.719344,1.4949633 87.645192,1.1515848 91.202546,0.73409255 98.18004,0.54092925 102.72584,0.73409561 c 7.54614,0.32066089 15.38521,1.58442729 22.49607,3.62668119 1.9439,0.5582923 3.57224,1.0529489 3.61852,1.0992372 0.14537,0.14537 -9.18545,28.15961 -9.39408,28.204187 -0.10908,0.02331 -0.99671,-0.200989 -1.97252,-0.498435 z"
     id="path129"
     inkscape:connector-curvature="0" /><path
     style="fill:#008080;stroke-width:0.22177427"
     d="m 117.03028,33.055052 c -2.75095,-0.801133 -7.89187,-1.844291 -10.97782,-2.227539 -1.40688,-0.174723 -4.61108,-0.284124 -8.094764,-0.276384 -5.567535,0.01237 -7.98699,0.220371 -13.129958,1.128789 -0.613378,0.108343 -0.727285,0.05401 -0.832571,-0.397156 C 83.84822,30.65307 82.96771,26.501236 82.332223,23.44154 82.078883,22.221782 80.992299,17.082163 79.91759,12.020166 78.606512,5.8448405 78.042211,2.7713654 78.202567,2.6792592 78.436691,2.5447817 81.234977,2.034611 84.096804,1.6046489 91.848549,0.44002356 101.8669,0.30873824 109.82262,1.2675254 c 3.4861,0.4201289 9.12539,1.4247899 9.44581,1.6828056 0.1332,0.1072585 0.29597,0.1412303 0.3617,0.075493 0.19109,-0.1910834 8.86877,2.1224527 9.23223,2.4613817 0.0995,0.092804 -0.6532,2.3930595 -0.83151,2.5410228 -0.0735,0.060988 -0.14343,0.261151 -0.1554,0.4448067 -0.012,0.1836557 -1.19298,3.8761978 -2.62447,8.2056478 -1.43148,4.329451 -3.27419,9.91136 -4.09491,12.404241 -0.82072,2.49288 -1.58578,4.551741 -1.70013,4.575245 -0.11435,0.02351 -1.2059,-0.247899 -2.42566,-0.603117 z"
     id="path131"
     inkscape:connector-curvature="0" /></svg>